<?xml version="1.0" encoding="utf-8"?>
<!-- Generator: Adobe Illustrator 27.3.1, SVG Export Plug-In . SVG Version: 6.00 Build 0)  -->
<svg version="1.1" xmlns="http://www.w3.org/2000/svg" xmlns:xlink="http://www.w3.org/1999/xlink" x="0px" y="0px"
	 viewBox="0 0 988.5 626" style="enable-background:new 0 0 988.5 626;" xml:space="preserve">
<style type="text/css">
	.st0{display:none;}
	.st1{display:inline;fill:#C6C6C6;}
	.st2{fill:#5FB0F2;}
	.st3{fill:#0080FF;}
	.st4{clip-path:url(#SVGID_00000013880148786395854970000012777940784130696336_);fill:#D7E7FF;}
	.st5{fill:#E2CC9F;}
	.st6{clip-path:url(#SVGID_00000152265546173321752350000015193210828685297319_);fill:#F7E1BA;}
	.st7{fill:#CCA052;}
	.st8{display:inline;fill:none;}
	.st9{display:inline;}
	.st10{fill:#040C44;stroke:#080828;stroke-width:4;stroke-miterlimit:10;}
	.st11{font-family:'Maginia-Regular';}
	.st12{font-size:260px;}
	.st13{font-size:170px;}
	.st14{fill:#040C44;stroke:#080828;stroke-width:4;stroke-linejoin:round;stroke-miterlimit:10;}
</style>
<g id="Layer_8" class="st0">
	<rect x="-134.8" y="-113" class="st1" width="1267.7" height="920.6"/>
</g>
<g id="Layer_7">
	<path class="st2" d="M109.1,576.5c-0.8-12.2,33.5-13,91.1-46.6c103.8-60.5,106.4-124,175.5-169.1c126.5-82.6,301.5,10.6,308.8,14.6
		c118.5,65.2,165,178.3,176.8,209.9c-24.2-18.8-60.8-43.7-108.8-64.1c-42.9-18.2-94.5-40.2-149.6-32.1c-63.5,9.3-82,51.2-137.4,87.5
		C320.9,671.2,110.9,606.4,109.1,576.5z"/>
	<path class="st3" d="M109.1,579.8c-0.8-11.4,33.5-12.2,91.1-43.5c103.8-56.5,106.4-115.7,175.5-157.8
		c126.5-77,301.5,9.9,308.8,13.6c118.5,60.8,165,166.4,176.8,195.9c-24.2-17.6-60.8-40.8-108.8-59.9c-42.9-17-94.5-37.5-149.6-29.9
		c-63.5,8.7-82,47.8-137.4,81.6C320.9,668.2,110.9,607.7,109.1,579.8z"/>
	<g>
		<defs>
			<path id="SVGID_1_" d="M109.1,579.8c-0.8-11.4,33.5-12.2,91.1-43.5c103.8-56.5,106.4-115.7,175.5-157.8
				c126.5-77,301.5,9.9,308.8,13.6c118.5,60.8,165,166.4,176.8,195.9c-24.2-17.6-60.8-40.8-108.8-59.9
				c-42.9-17-94.5-37.5-149.6-29.9c-63.5,8.7-82,47.8-137.4,81.6C320.9,668.2,110.9,607.7,109.1,579.8z"/>
		</defs>
		<clipPath id="SVGID_00000113350547648267798630000010753096768020130235_">
			<use xlink:href="#SVGID_1_"  style="overflow:visible;"/>
		</clipPath>
		<path style="clip-path:url(#SVGID_00000113350547648267798630000010753096768020130235_);fill:#D7E7FF;" d="M167.5,933.8
			c-0.6-11,27.3-27.6,74.4-85.4c84.7-104.2,78.5-92.9,134.9-166.7c44.2-57.9,88.9-98.8,126.3-129c21.4-17.3,37.1-31.6,56.9-41.6
			c26.4-13.3,56.9-19.5,87.1-20.6c96.9-3.7,213.7,81.5,223.3,105.5c-19.8-6.4-58.6-12.8-97.8-9.8c-35,2.7-157.1,6-202.1,38.9
			c-51.8,37.9-66.9,85.5-112.1,144.8C340.4,924.7,169,960.8,167.5,933.8z"/>
	</g>
</g>
<g id="Layer_4">
	<path class="st5" d="M495.4,7.7c-16.4,18-27.6,22.7-35.1,23.2c-2.2,0.2-9.4,0.3-16.5,4.8c-1.9,1.2-3.7,2.7-7.9,6.9
		c-7.7,7.8-10.6,14.6-30.6,34.2c-20,19.6-24.8,21-28.9,31.5c-4.3,11.3-0.7,14.7-4.4,42.9c-2.5,19.6-4.4,19-4.4,28.9
		c0,5.9,0.8,24.7,12.2,42.9c3.4,5.4,3.9,4.6,34.1,33.2c16.5,15.6,20.7,20,24.5,28c1.2,2.6,1.3,3.2,7.9,26.2
		c6.2,21.7,7.4,25.6,11.4,28.9c8.7,7.2,21.8,4.5,27.1,3.5c18.9-3.5,50.9-4.9,109.3,1.7c3.4,0.1,9.8-0.3,15.7-4.4
		c4.4-3.1,7.1-7.2,9.6-13.1c8.9-20.9,2.1-31.9,10.5-44.6c2.7-4.1,3.6-3.3,14.9-12.2c10.4-8.3,27.2-21.6,40.2-40.2
		c6.7-9.5,13.5-19.4,16.6-34.1c1.3-6.1,1.8-12.6-0.9-42.9c-2.4-27.2-2.2-30-3.5-34.1c-3.2-10.2-7.8-24.4-20.1-32.4
		c-4-2.6-8.3-4.2-13.1-9.6c-4.5-5.1-5.2-8.9-7.9-14c-0.7-1.3-9.7-18.3-25.4-23.6c-12.6-4.3-20.7,2.1-27.1-4.4
		c-3.8-3.8-2-7.1-5.2-13.1c-5.1-9.5-16.7-14.6-25.4-15.7c-20.5-2.7-31.4,16-44.7,9.6c-5.7-2.7-5.8-7.2-13-9.6
		C508,3.4,500.4,5.6,495.4,7.7z"/>
	<g>
		<defs>
			<path id="SVGID_00000025440986123015089460000006898198175977661597_" d="M495.4,7.7c-16.4,18-27.6,22.7-35.1,23.2
				c-2.2,0.2-9.4,0.3-16.5,4.8c-1.9,1.2-3.7,2.7-7.9,6.9c-7.7,7.8-10.6,14.6-30.6,34.2c-20,19.6-24.8,21-28.9,31.5
				c-4.3,11.3-0.7,14.7-4.4,42.9c-2.5,19.6-4.4,19-4.4,28.9c0,5.9,0.8,24.7,12.2,42.9c3.4,5.4,3.9,4.6,34.1,33.2
				c16.5,15.6,20.7,20,24.5,28c1.2,2.6,1.3,3.2,7.9,26.2c6.2,21.7,7.4,25.6,11.4,28.9c8.7,7.2,21.8,4.5,27.1,3.5
				c18.9-3.5,50.9-4.9,109.3,1.7c3.4,0.1,9.8-0.3,15.7-4.4c4.4-3.1,7.1-7.2,9.6-13.1c8.9-20.9,2.1-31.9,10.5-44.6
				c2.7-4.1,3.6-3.3,14.9-12.2c10.4-8.3,27.2-21.6,40.2-40.2c6.7-9.5,13.5-19.4,16.6-34.1c1.3-6.1,1.8-12.6-0.9-42.9
				c-2.4-27.2-2.2-30-3.5-34.1c-3.2-10.2-7.8-24.4-20.1-32.4c-4-2.6-8.3-4.2-13.1-9.6c-4.5-5.1-5.2-8.9-7.9-14
				c-0.7-1.3-9.7-18.3-25.4-23.6c-12.6-4.3-20.7,2.1-27.1-4.4c-3.8-3.8-2-7.1-5.2-13.1c-5.1-9.5-16.7-14.6-25.4-15.7
				c-20.5-2.7-31.4,16-44.7,9.6c-5.7-2.7-5.8-7.2-13-9.6C508,3.4,500.4,5.6,495.4,7.7z"/>
		</defs>
		<clipPath id="SVGID_00000181045324360781607260000007408676848180519610_">
			<use xlink:href="#SVGID_00000025440986123015089460000006898198175977661597_"  style="overflow:visible;"/>
		</clipPath>
		<path style="clip-path:url(#SVGID_00000181045324360781607260000007408676848180519610_);fill:#F7E1BA;" d="M556.6,0h2.1
			c11.5,0.5,22.9,4.7,31.7,12.1c5.4,4.4,9.6,10,13,16.1c9.3,1,18.5,3.1,26.8,7.5c13.1,6.7,23.8,18,29.7,31.4
			c1.2,2.3,1.4,5.6,4.1,6.7c15.4,8.6,27.3,23.3,32.6,40.2c3.5,11.1,4.3,23.1,2,34.6c-0.7,3.4,1.2,6.6,1.8,9.8
			c5.8,26.6-1.1,55.4-17.5,77c-3.8,5-7.9,9.8-12.9,13.7c-12.4,10.3-24.8,20.6-37.2,30.8c-0.8,0.6-1.5,1.4-1.7,2.4
			c-4.5,16.6-9,33.2-13.5,49.8c-2.6,9.1-11.6,15.6-21,16.1h-136c-10.2-0.3-19.7-7.8-21.9-17.9c-4.3-15.9-8.6-31.7-12.9-47.6
			c-0.4-1.5-0.6-3.2-2-4.1c-12.6-10.5-25.3-21-37.9-31.5c-23.5-22-35-56.4-28.4-88.1c0.6-3.6,2.9-7.1,1.9-10.9
			c-2.3-11.5-1.4-23.5,2.1-34.6c5.5-17.5,18.2-32.5,34.4-41.1c6.2-17.9,20.3-32.9,38.1-39.6c6.8-2.8,14.1-3.8,21.3-5.2
			c7.1-13.3,20.1-23.2,34.8-26.3c13.2-3,27.4-0.4,38.9,6.7C537.4,3.1,546.9,0.1,556.6,0 M534.4,18.9c0.1,97.8,0,195.5,0,293.3
			c0,1.9-0.2,3.9,0.3,5.8c7.3-34.5,14.3-69.1,21.5-103.7c12.3-59.3,24.5-118.6,36.7-178c0.1-1,0.6-2.1,0-3
			c-5.1-10.1-14.7-17.7-25.7-20.4C556.2,10,543.7,12.1,534.4,18.9 M493.1,12.8c-10.9,2.2-20.7,9.1-26.3,18.7
			c-0.6,1.2-1.9,2.4-1.5,3.9c11.2,54.2,22.4,108.4,33.6,162.6c7.9,38.8,16.2,77.6,23.9,116.4c0-78.3,0-156.5,0-234.8
			c-0.1-20.5,0.1-41.1-0.1-61.6C514,12.4,503.1,10.7,493.1,12.8 M437.8,44c-13.8,5.4-25,17-30.1,30.9c-1,1.9,0.5,3.7,1.1,5.4
			c34,77.8,68,155.7,101.9,233.5c-0.7-5-2-9.8-2.9-14.8c-17.8-86.4-35.7-172.7-53.5-259.1C448.7,40.7,443,41.7,437.8,44 M604,40
			c-11.7,56.5-23.3,113-35,169.6c-7.1,34.7-14.4,69.4-21.4,104.2c6.6-14.8,13-29.7,19.5-44.5c28-64.1,56.1-128.2,84-192.4
			c-1.4-6.2-4.9-11.7-8.7-16.6C633.1,48.4,618.8,41.3,604,40 M372.8,116.9c-3.2,9.9-3.9,20.6-1.5,30.7c1.8,3.3,4.5,6.1,6.6,9.1
			c40.7,53.7,81.3,107.5,122,161.1c-14.9-34.1-29.8-68.3-44.7-102.4c-19.1-43.5-38-87.2-57.2-130.7
			C386.2,92.1,377.1,103.7,372.8,116.9 M558.5,317.9c37.1-49.1,74.3-98.1,111.4-147.1c5.6-7.6,11.5-14.9,17-22.6
			c2.2-8.7,1.9-18-0.2-26.7c-3.6-15-13.3-28.4-26.5-36.5C626.4,162.7,592.3,240.2,558.5,317.9 M368.6,163.8
			c-4.8,26.8,5,55.4,24.5,74.2c28.3,23.5,56.7,47,85,70.6c-4.4-6.1-9.1-12.1-13.7-18.2C432.6,248.3,400.6,206,368.6,163.8
			 M580,308.8c28.5-23.7,57-47.3,85.5-70.9c19.4-18.7,28.9-47.3,24.1-73.9C653.1,212.2,616.5,260.4,580,308.8 M440.6,292.5
			c2.9,10.9,5.9,21.7,8.8,32.6c0.6,2.4,1.2,5,2.8,7c2.2,3,5.9,4.7,9.6,4.6c10.5,0,21.1,0,31.6,0c-3.2-2.3-6-5-8.8-7.7
			C469.9,316.8,455.3,304.7,440.6,292.5 M576.8,326.6c-4.1,3.2-7.5,7.2-11.8,10.1c10.1,0,20.1,0,30.2,0c5.2,0.2,10.3-3.6,11.7-8.6
			c3.1-11.4,6.1-22.9,9.3-34.3C603.1,304.8,589.9,315.6,576.8,326.6z"/>
	</g>
	<g id="Layer_1">
		<g>
			<g id="_x23_000000ff_00000076593142341696456230000014552321267256934054_">
				<path class="st7" d="M562.6,0h2.1c11.5,0.5,22.9,4.7,31.7,12.1c5.4,4.4,9.6,10,13,16.1c9.3,1,18.5,3.1,26.8,7.5
					c13.1,6.7,23.8,18,29.7,31.4c1.2,2.3,1.4,5.6,4.1,6.7c15.4,8.6,27.3,23.3,32.6,40.2c3.5,11.1,4.3,23.1,2,34.6
					c-0.7,3.4,1.2,6.6,1.8,9.8c5.8,26.6-1.1,55.4-17.5,77c-3.8,5-7.9,9.8-12.9,13.7c-12.4,10.3-24.8,20.6-37.2,30.8
					c-0.8,0.6-1.5,1.4-1.7,2.4c-4.5,16.6-9,33.2-13.5,49.8c-2.6,9.1-11.6,15.6-21,16.1h-136c-10.2-0.3-19.7-7.8-21.9-17.9
					c-4.3-15.9-8.6-31.7-12.9-47.6c-0.4-1.5-0.6-3.2-2-4.1c-12.6-10.5-25.3-21-37.9-31.5c-23.5-22-35-56.4-28.4-88.1
					c0.6-3.6,2.9-7.1,1.9-10.9c-2.3-11.5-1.4-23.5,2.1-34.6c5.5-17.5,18.2-32.5,34.4-41.1c6.2-17.9,20.3-32.9,38.1-39.6
					c6.8-2.8,14.1-3.8,21.3-5.2c7.1-13.3,20.1-23.2,34.8-26.3c13.2-3,27.4-0.4,38.9,6.7C543.4,3.1,552.9,0.1,562.6,0 M540.4,18.9
					c0.1,97.8,0,195.5,0,293.3c0,1.9-0.2,3.9,0.3,5.8c7.3-34.5,14.3-69.1,21.5-103.7c12.3-59.3,24.5-118.6,36.7-178
					c0.1-1,0.6-2.1,0-3c-5.1-10.1-14.7-17.7-25.7-20.4C562.2,10,549.7,12.1,540.4,18.9 M499.1,12.8c-10.9,2.2-20.7,9.1-26.3,18.7
					c-0.6,1.2-1.9,2.4-1.5,3.9c11.2,54.2,22.4,108.4,33.6,162.6c7.9,38.8,16.2,77.6,23.9,116.4c0-78.3,0-156.5,0-234.8
					c-0.1-20.5,0.1-41.1-0.1-61.6C520,12.4,509.1,10.7,499.1,12.8 M443.8,44c-13.8,5.4-25,17-30.1,30.9c-1,1.9,0.5,3.7,1.1,5.4
					c34,77.8,68,155.7,101.9,233.5c-0.7-5-2-9.8-2.9-14.8c-17.8-86.4-35.7-172.7-53.5-259.1C454.7,40.7,449,41.7,443.8,44 M610,40
					c-11.7,56.5-23.3,113-35,169.6c-7.1,34.7-14.4,69.4-21.4,104.2c6.6-14.8,13-29.7,19.5-44.5c28-64.1,56.1-128.2,84-192.4
					c-1.4-6.2-4.9-11.7-8.7-16.6C639.1,48.4,624.8,41.3,610,40 M378.8,116.9c-3.2,9.9-3.9,20.6-1.5,30.7c1.8,3.3,4.5,6.1,6.6,9.1
					c40.7,53.7,81.3,107.5,122,161.1c-14.9-34.1-29.8-68.3-44.7-102.4c-19.1-43.5-38-87.2-57.2-130.7
					C392.2,92.1,383.1,103.7,378.8,116.9 M564.5,317.9c37.1-49.1,74.3-98.1,111.4-147.1c5.6-7.6,11.5-14.9,17-22.6
					c2.2-8.7,1.9-18-0.2-26.7c-3.6-15-13.3-28.4-26.5-36.5C632.4,162.7,598.3,240.2,564.5,317.9 M374.6,163.8
					c-4.8,26.8,5,55.4,24.5,74.2c28.3,23.5,56.7,47,85,70.6c-4.4-6.1-9.1-12.1-13.7-18.2C438.6,248.3,406.6,206,374.6,163.8
					 M586,308.8c28.5-23.7,57-47.3,85.5-70.9c19.4-18.7,28.9-47.3,24.1-73.9C659.1,212.2,622.5,260.4,586,308.8 M446.6,292.5
					c2.9,10.9,5.9,21.7,8.8,32.6c0.6,2.4,1.2,5,2.8,7c2.2,3,5.9,4.7,9.6,4.6c10.5,0,21.1,0,31.6,0c-3.2-2.3-6-5-8.8-7.7
					C475.9,316.8,461.3,304.7,446.6,292.5 M582.8,326.6c-4.1,3.2-7.5,7.2-11.8,10.1c10.1,0,20.1,0,30.2,0c5.2,0.2,10.3-3.6,11.7-8.6
					c3.1-11.4,6.1-22.9,9.3-34.3C609.1,304.8,595.9,315.6,582.8,326.6z"/>
			</g>
		</g>
	</g>
</g>
<g id="Layer_2" class="st0">
	<rect x="-186.8" y="85.2" class="st8" width="1366" height="550.7"/>
	<text transform="matrix(1 0 0 1 -3.6382 292.4001)" class="st9"><tspan x="0" y="0" class="st10 st11 st12">Acuario</tspan><tspan x="-183.2" y="160" class="st10 st11 st13">       Arrecifes</tspan><tspan x="-183.2" y="320" class="st10 st11 st13">         Bellos</tspan></text>
</g>
<g id="Layer_2_copy">
	<g>
		<path class="st10" d="M104,131.2c0,29.9,18.5,43.4,36.1,43.4c16.4,0,32-11.4,32-32.8c0-13.5-8.6-26.8-24.2-26.8
			c-5.7,0-10.1,2.6-12,6c0.5-0.3,1-0.3,1.6-0.3c2.3,0,4.4,1.8,4.4,4.2s-2.1,4.2-4.4,4.2c-2.3,0-4.2-1.8-4.2-4.2
			c0-8.8,7.8-12.7,16.1-12.7c4.7,0,9.4,1.3,12.7,3.4c0.5-0.3,1.6-0.5,2.6-0.5c11.2,0,17.2,10.9,17.2,23.7c0,25.5-21.1,39-42.6,39
			c-22.6,0-45.8-15.1-45.8-46.5c0-35.6,29.6-56.2,64.7-56.2c37.4,0,59.8,18.2,76.7,62.7l51.5,134.4c3.9,10.1,9.1,16.9,18.5,19v1.3
			h-39.5v-1.3c6.8-1,9.4-4.7,9.4-9.6c0-2.6-0.8-6-2.1-9.4l-19.2-49.9c-5.2,7.5-13.3,12-21.8,12c-13.8,0-23.1-8.8-33.5-8.8
			c-8.8,0-16.1,2.9-21.3,9.1l-13.3,34.8c-18.2,47.3-45.8,68.6-88.9,68.6C27.8,337.9,0,304.1,0,267.7c0-33.3,24.7-66.6,72.5-66.6
			c39.3,0,59.3,27,59.3,53.3c0,23.9-16.6,47.1-51.5,47.1c-29.4,0-41.9-20-41.9-35.6c0-9.9,4.4-17.7,12.7-18.5
			c4.7-7.3,13-10.4,20.3-10.4c10.4,0,15.3,5.7,15.3,10.9c0,2.6-1.8,4.2-4.4,4.2c-2.3,0-4.2-1.6-4.2-4.2c0-2.9,2.1-4.2,4.7-4.2
			c-2.3-2.6-6-4.2-11.4-4.2c-13.5,0-22.4,12.7-22.4,27.3c0,15.6,9.9,32,32.2,32c26.5,0,40-21.3,40-43.9c0-24.7-16.4-50.7-49.9-50.7
			c-40,0-61.1,31.5-61.1,63.4c0,35.1,25.2,67.6,64.2,67.6c40.6,0,67.6-21.3,85.3-67.1l55.6-144.6c-14-31.7-31.7-45.5-58.2-45.5
			C128.7,78.2,104,97.7,104,131.2z M253,220.4l-35.4-91.8l-38.7,100.6c5.2-6.2,12.5-9.6,20.3-9.6c14.3,0,23.1,8.8,33.5,8.8
			C241,228.4,247.8,225.8,253,220.4z"/>
		<path class="st10" d="M410.8,201.9c-4.9,0-8.8-3.9-8.8-8.8s3.9-8.8,8.8-8.8c0.5,0,0.8,0,1.3,0c-6-13.8-22.1-21.8-39.5-21.8
			c-27.3,0-46.5,25.7-46.5,65c0,43.9,23.7,62.7,47.8,62.7c18.2,0,35.4-8.8,47.1-28.9l2.3,1.3c-10.1,20.3-28.6,32.5-50.7,32.5
			c-36.7,0-60.6-26.8-60.6-67.6c0-40.8,25.2-67.6,61.6-67.6c29.9,0,46,17.7,46,33.3C419.6,198,415.7,201.9,410.8,201.9z"/>
		<path class="st10" d="M449.5,183.7c0-9.1-2.9-12.2-12-12.2v-1.3l25-9.1v97c0,25.2,12.2,33.5,28.3,33.5c26.5,0,45.8-25.7,45.8-47.8
			v-60.1c0-9.1-2.9-12.2-12-12.2v-1.3l25-9.1v117.8c0,9.1,3.4,10.7,7.3,10.7c2.9,0,5.5-1,7-2.3l0.8,0.8c-2.9,3.6-7.5,7-13.3,7
			c-6.5,0-14.8-2.1-14.8-17.7v-18.2c-6.2,17.7-22.9,35.9-46.8,35.9c-32.5,0-40.3-19.2-40.3-37.4V183.7z"/>
		<path class="st10" d="M718.4,180.1c-10.7,7.8-24.7,14-39.5,19.5v79.3c0,9.1,3.4,10.7,7.3,10.7c2.9,0,5.5-1,7-2.3l0.8,0.8
			c-2.9,3.6-7.5,7-13.3,7c-6.5,0-14.8-2.1-14.8-17.7v-39.3c-9.4,29.1-27,56.9-56.2,56.9c-18.2,0-32.5-9.6-32.5-27.8
			c0-38.5,46.5-53,88.7-67.1v-4.9c0-25.7-21.8-32.8-34.8-32.8c-16.1,0-30.7,8.1-35.6,19.2c5.5,0,9.9,2.9,9.9,8.8
			c0,4.9-3.9,8.8-8.8,8.8c-4.9,0-8.8-3.9-8.8-8.8c0-16.9,19.5-30.7,43.4-30.7c32.8,0,46,18.2,47.6,36.1
			c25.2-8.8,46.5-18.7,51.7-34.8h1V211c4.7-23.4,15.6-51.2,40.8-51.2c12,0,19.5,6.2,19.5,16.6c0,4.9-3.9,8.8-8.8,8.8
			c-4.9,0-8.8-3.9-8.8-8.8c0-4.7,3.6-8.6,8.3-8.8c-2.6-2.6-6.8-3.9-11.2-3.9c-27.3,0-39.8,44.5-39.8,70.2v38.2
			c0,11.7,3.6,17.9,13.3,19v1.3h-39.5v-1.3c9.6-1,13.3-7.3,13.3-19V180.1z M665.9,204.3c-36.9,13.3-74.6,26.3-74.6,61.9
			c0,15.6,8.3,25.5,21.3,25.5c25,0,44.2-31.7,53.3-62.1V204.3z"/>
		<path class="st10" d="M827.1,161.1v111c0,11.7,3.6,17.9,13.3,19v1.3h-39.5v-1.3c9.6-1,13.3-7.3,13.3-19v-88.4
			c0-9.1-2.9-12.2-12-12.2v-1.3L827.1,161.1z M819.3,110.4c5.2,0,9.1,3.9,9.1,9.1c0,5.2-3.9,9.1-9.1,9.1c-5.2,0-9.1-3.9-9.1-9.1
			C810.2,114.3,814.1,110.4,819.3,110.4z"/>
		<path class="st10" d="M920.9,159.8c40.8,0,67.6,26.8,67.6,67.6c0,40.8-26.8,67.6-67.6,67.6s-67.6-26.8-67.6-67.6
			C853.3,186.6,880.1,159.8,920.9,159.8z M920.9,292.4c32.2,0,53.6-25.7,53.6-65s-21.3-65-53.6-65s-53.6,25.7-53.6,65
			S888.7,292.4,920.9,292.4z"/>
		<path class="st14" d="M131.3,460.6c2.7,5.7,7.3,10.1,13,13.3C138.9,470.3,134.6,465.8,131.3,460.6z"/>
		<path class="st14" d="M311.6,439.1c0,0-37.2-96.6-41.6-103.2c-1.7,1.9-41.2,100.7-41.2,100.7c-11.6,29.9-29.2,43.9-55.8,43.9
			c-10.4,0-20.7-2-28.8-6.5c7.7,5.1,17.4,8.2,28.8,8.2c28.2,0,46.2-13.9,58.1-44.9l8.7-22.8c3.4-4.1,8.2-6,13.9-6
			c6.8,0,12.9,5.8,21.9,5.8c5.6,0,10.9-2.9,14.3-7.8l12.6,32.6c0.9,2.2,1.4,4.4,1.4,6.1c0,3.2-1.7,5.6-6.1,6.3v0.8h25.8v-0.8
			C317.6,450.2,314.2,445.8,311.6,439.1z M276.4,410.6c-6.8,0-12.6-5.8-21.9-5.8c-5.1,0-9.9,2.2-13.3,6.3l25.3-65.8l23.1,60
			C286.3,408.9,281.9,410.6,276.4,410.6z"/>
		<path class="st10" d="M338.3,381.3c0-5.9-1.9-8-7.8-8v-0.9l16.3-5.9V398c4.4-20.6,13.8-32.3,26.7-32.3c7.8,0,12.8,4.1,12.8,10.9
			c0,3.2-2.5,5.8-5.8,5.8s-5.8-2.5-5.8-5.8c0-3.1,2.4-5.6,5.4-5.8c-1.7-1.7-4.4-2.5-7.3-2.5c-14.3,0-26,20.7-26,45.9v25
			c0,7.6,2.4,11.7,8.7,12.4v0.8h-25.8v-0.8c6.3-0.7,8.7-4.8,8.7-12.4V381.3z"/>
		<path class="st10" d="M400.9,381.3c0-5.9-1.9-8-7.8-8v-0.9l16.3-5.9V398c4.4-20.6,13.8-32.3,26.7-32.3c7.8,0,12.8,4.1,12.8,10.9
			c0,3.2-2.5,5.8-5.8,5.8s-5.8-2.5-5.8-5.8c0-3.1,2.4-5.6,5.4-5.8c-1.7-1.7-4.4-2.5-7.3-2.5c-14.3,0-26,20.7-26,45.9v25
			c0,7.6,2.4,11.7,8.7,12.4v0.8h-25.8v-0.8c6.3-0.7,8.7-4.8,8.7-12.4V381.3z"/>
		<path class="st10" d="M529.9,432.8c-7.1,13.3-20.7,21.2-36.9,21.2c-24,0-39.6-17.5-39.6-44.2c0-26.7,15.6-44.2,39.6-44.2
			c17.5,0,30.4,9.2,36.2,24.6l-27.1,9.8l-15.8,5.7c-15.1,5.4-22.4,13.9-19.4,27.2c5.8,12.2,16.3,17.8,26.9,17.8
			c13.1,0,26.4-5.8,34.5-18.9L529.9,432.8z M518.7,391.9c1.4-0.5,2-1.7,1.5-3.1c-4.9-13.4-14.6-21.4-27.2-21.4
			c-18.2,0-30.4,16.8-30.4,42.5c0,6.5,0.9,12.1,2.2,17c0-12.1,8.5-18.5,23.1-23.8L518.7,391.9z"/>
		<path class="st10" d="M603.9,393.2c-3.2,0-5.8-2.5-5.8-5.8c0-3.2,2.5-5.8,5.8-5.8c0.3,0,0.5,0,0.8,0c-3.9-9-14.5-14.3-25.8-14.3
			c-17.8,0-30.4,16.8-30.4,42.5c0,28.7,15.5,41,31.3,41c11.9,0,23.1-5.8,30.8-18.9l1.5,0.8c-6.6,13.3-18.7,21.2-33.1,21.2
			c-24,0-39.6-17.5-39.6-44.2c0-26.7,16.5-44.2,40.3-44.2c19.5,0,30.1,11.6,30.1,21.8C609.6,390.7,607.1,393.2,603.9,393.2z"/>
		<path class="st10" d="M638.5,366.6v72.6c0,7.6,2.4,11.7,8.7,12.4v0.8h-25.8v-0.8c6.3-0.7,8.7-4.8,8.7-12.4v-57.8
			c0-5.9-1.9-8-7.8-8v-0.9L638.5,366.6z M633.4,333.4c3.4,0,6,2.5,6,5.9s-2.5,6-6,6c-3.4,0-5.9-2.6-5.9-6S630,333.4,633.4,333.4z"/>
		<path class="st10" d="M707.1,333.7c0-3.2,2.5-5.8,5.8-5.8c-2.7-6-8.5-9.4-15.8-9.4c-12.6,0-18.4,9.5-18.4,29.9v18.9h23.8v2h-23.8
			v69.7c0,7.6,2.4,11.7,8.7,12.4v0.8h-25.8v-0.8c6.3-0.7,8.7-4.8,8.7-12.4v-69.7h-17v-2h17v-16c0-22.1,9.9-34.5,27.4-34.5
			c15,0,20.9,10.5,21.1,16.5c0,3.4-2.2,6.1-5.8,6.1C709.6,339.5,707.1,337,707.1,333.7z"/>
		<path class="st10" d="M783.4,432.8c-7.1,13.3-20.7,21.2-36.9,21.2c-24,0-39.6-17.5-39.6-44.2c0-26.7,15.6-44.2,39.6-44.2
			c17.5,0,30.4,9.2,36.2,24.6l-42.8,15.5c-15.1,5.4-22.4,13.9-19.4,27.2c5.8,12.2,16.3,17.8,26.9,17.8c13.1,0,26.3-5.8,34.5-18.9
			L783.4,432.8z M772.2,391.9c1.4-0.5,2-1.7,1.5-3.1c-4.9-13.4-14.6-21.4-27.2-21.4c-18.2,0-30.4,16.8-30.4,42.5
			c0,6.5,0.9,12.1,2.2,17c0-12.1,8.5-18.5,23.1-23.8L772.2,391.9z"/>
		<path class="st10" d="M850.7,431.8c0,15.5-13.4,22.3-28.7,22.3c-10,0-17.5-3.2-23.3-8.7l-5.4,7h-0.5v-25.2h1
			c4.4,17.7,16.5,25.2,29.1,25.2c11.7,0,21.8-6.6,21.8-17.3c0-25.3-50.7-19.2-50.7-49c0-11.9,11.4-20.4,25.8-20.4
			c9.5,0,16.5,3.1,21.4,7.8l4.4-5.4h0.5v21.1h-1c-4.4-15.8-14.1-21.8-24.8-21.8c-12.8,0-20.2,7.1-20.2,16
			C800,407.3,850.7,400.7,850.7,431.8z"/>
		<path class="st10" d="M270.2,542.5c22.4,2.5,34.7,15,34.7,34.7c0,22.1-15.5,35.2-43.5,35.2h-43.5v-0.8c6.3-0.7,8.7-4.8,8.7-12.4
			v-92.5c0-7.6-2.4-11.7-8.7-12.4v-0.9h41.3c20.4,0,33.1,9.9,33.1,25.3C292.3,531.1,283.9,539.6,270.2,542.5z M235.3,542h21.2
			c18.7,0,26.9-9.5,26.9-23.3c0-13.8-8.2-23.3-26.9-23.3h-21.2V542z M235.3,610.4h23.3c24.6,0,36.4-12.8,36.4-33.1
			c0-20.4-11.7-33.1-36.4-33.1h-23.3V610.4z"/>
		<path class="st10" d="M391.5,592.8c-7.1,13.3-20.7,21.2-36.9,21.2c-24,0-39.6-17.5-39.6-44.2c0-26.7,15.6-44.2,39.6-44.2
			c17.5,0,30.4,9.2,36.2,24.6L348,565.8c-15.1,5.4-22.4,13.9-19.4,27.2c5.8,12.2,16.3,17.8,26.9,17.8c13.1,0,26.3-5.8,34.5-18.9
			L391.5,592.8z M380.3,551.9c1.4-0.5,2-1.7,1.5-3.1c-4.9-13.4-14.6-21.4-27.2-21.4c-18.2,0-30.4,16.8-30.4,42.5
			c0,6.5,0.9,12.1,2.2,17c0-12.1,8.5-18.5,23.1-23.8L380.3,551.9z"/>
		<path class="st10" d="M418.1,476.9v122.2c0,7.6,2.4,11.7,8.7,12.4v0.8h-25.8v-0.8c6.3-0.7,8.7-4.8,8.7-12.4V491.7c0-6-1.9-8-7.8-8
			v-0.9L418.1,476.9z"/>
		<path class="st10" d="M452.4,476.9v122.2c0,7.6,2.4,11.7,8.7,12.4v0.8h-25.8v-0.8c6.3-0.7,8.7-4.8,8.7-12.4V491.7c0-6-1.9-8-7.8-8
			v-0.9L452.4,476.9z"/>
		<path class="st10" d="M513.8,525.7c26.7,0,44.2,17.5,44.2,44.2c0,26.7-17.5,44.2-44.2,44.2c-26.7,0-44.2-17.5-44.2-44.2
			C469.6,543.2,487.1,525.7,513.8,525.7z M513.8,612.4c21.1,0,35-16.8,35-42.5c0-25.7-13.9-42.5-35-42.5c-21.1,0-35,16.8-35,42.5
			C478.7,595.6,492.7,612.4,513.8,612.4z"/>
		<path class="st10" d="M624.4,591.8c0,15.5-13.4,22.3-28.7,22.3c-10,0-17.5-3.2-23.3-8.7l-5.4,7h-0.5v-25.2h1
			c4.4,17.7,16.5,25.2,29.1,25.2c11.7,0,21.8-6.6,21.8-17.3c0-25.3-50.7-19.2-50.7-49c0-11.9,11.4-20.4,25.8-20.4
			c9.5,0,16.5,3.1,21.4,7.8l4.4-5.4h0.5v21.1h-1c-4.4-15.8-14.1-21.8-24.8-21.8c-12.8,0-20.2,7.1-20.2,16
			C573.8,567.3,624.4,560.7,624.4,591.8z"/>
	</g>
</g>
</svg>
